<?xml version="1.0" standalone="no"?>
<!DOCTYPE svg PUBLIC "-//W3C//DTD SVG 20010904//EN"
 "http://www.w3.org/TR/2001/REC-SVG-20010904/DTD/svg10.dtd">
<svg version="1.0" xmlns="http://www.w3.org/2000/svg"
 width="512.000000pt" height="512.000000pt" viewBox="0 0 512.000000 512.000000"
 preserveAspectRatio="xMidYMid meet">

<g transform="translate(0.000000,512.000000) scale(0.100000,-0.100000)"
fill="#000000" stroke="none">
<path d="M2355 4844 c-379 -56 -696 -209 -954 -458 -263 -255 -429 -566 -492
-922 -27 -154 -29 -398 -5 -569 90 -630 456 -1328 1085 -2065 144 -169 549
-580 571 -580 20 0 398 381 541 545 556 639 921 1269 1064 1835 69 272 87 599
46 834 -27 151 -86 330 -157 471 -194 390 -566 707 -985 840 -175 55 -259 68
-479 70 -113 2 -218 1 -235 -1z m522 -318 c401 -101 730 -365 908 -731 99
-204 130 -344 130 -595 0 -141 -4 -205 -18 -270 -59 -275 -177 -490 -377 -690
-200 -200 -415 -318 -690 -377 -120 -26 -420 -26 -540 0 -258 56 -480 172
-667 351 -198 188 -323 404 -391 674 -25 99 -27 123 -27 312 0 189 2 213 27
312 67 264 191 481 380 664 176 170 379 286 607 344 135 34 186 39 376 35 152
-3 196 -7 282 -29z"/>
<path d="M2320 3760 l0 -320 -320 0 -320 0 0 -240 0 -240 320 0 320 0 0 -320
0 -320 240 0 240 0 0 320 0 320 320 0 320 0 0 240 0 240 -320 0 -320 0 0 320
0 320 -240 0 -240 0 0 -320z"/>
</g>
</svg>
